<?xml version="1.0"?>
<svg xmlns="http://www.w3.org/2000/svg" id="Capa_1" enable-background="new 0 0 512.167 512.167" height="512" viewBox="0 0 512.167 512.167" width="512" class=""><g><g><path d="m256.083 0c-60.193 0-112.45 42.84-124.254 101.863l-8.955 44.773c40.547-22.746 85.966-34.64 133.209-34.64 47.244 0 92.662 11.895 133.209 34.641l-8.955-44.773c-11.804-59.024-64.06-101.864-124.254-101.864z" data-original="#000000" class="active-path" style="fill:#FFFFFF" data-old_color="#000000"/><path d="m393.257 184.391c-14.178-9.674-29.18-17.674-44.721-24.012v56.978c0 24.054-9.237 45.99-24.346 62.453h37.261z" data-original="#000000" class="active-path" style="fill:#FFFFFF" data-old_color="#000000"/><path d="m318.536 217.357v-66.995c-40.862-10.734-84.042-10.734-124.904 0v66.995c0 34.437 28.016 62.453 62.452 62.453s62.452-28.017 62.452-62.453z" data-original="#000000" class="active-path" style="fill:#FFFFFF" data-old_color="#000000"/><path d="m163.631 217.357v-56.978c-15.541 6.338-30.544 14.338-44.721 24.012l31.806 95.419h37.261c-15.109-16.464-24.346-38.399-24.346-62.453z" data-original="#000000" class="active-path" style="fill:#FFFFFF" data-old_color="#000000"/><path d="m0 512.167h83.841l-21.979-151.245c-29.693 28.995-61.862 75.207-61.862 120.874z" data-original="#000000" class="active-path" style="fill:#FFFFFF" data-old_color="#000000"/><path d="m256.083 434.714c13.083 0 23.726-10.644 23.726-23.727 0-13.082-10.644-23.726-23.726-23.726s-23.726 10.644-23.726 23.726c0 13.084 10.644 23.727 23.726 23.727z" data-original="#000000" class="active-path" style="fill:#FFFFFF" data-old_color="#000000"/><path d="m398.011 512.167 29.407-202.356h-342.668l29.407 202.356zm-141.928-154.905c29.625 0 53.726 24.102 53.726 53.726 0 29.625-24.102 53.727-53.726 53.727s-53.726-24.102-53.726-53.727c0-29.624 24.102-53.726 53.726-53.726z" data-original="#000000" class="active-path" style="fill:#FFFFFF" data-old_color="#000000"/><path d="m512.167 481.796c0-45.667-32.169-91.88-61.862-120.875l-21.979 151.245h83.841z" data-original="#000000" class="active-path" style="fill:#FFFFFF" data-old_color="#000000"/></g></g> </svg>
