<?xml version="1.0"?>
<svg xmlns="http://www.w3.org/2000/svg" xmlns:xlink="http://www.w3.org/1999/xlink" version="1.1" id="Capa_1" x="0px" y="0px" viewBox="0 0 511.327 511.327" style="enable-background:new 0 0 511.327 511.327;" xml:space="preserve" width="512" height="512"><g><g>
	<path d="M106.025,270.664H0.111c3.601,62.739,29.735,121.221,74.534,166.02c45.232,45.232,104.411,71.449,167.839,74.644V405.465   C170.663,399.198,113.146,342.24,106.025,270.664z" data-original="#000000" class="active-path" style="fill:#FFFFFF" data-old_color="#000000"/>
	<path d="M272.483,405.103v106.002c62.049-3.998,119.834-30.057,164.2-74.422c44.799-44.799,70.932-103.281,74.534-166.02H405.302   C398.302,341.027,342.6,397.263,272.483,405.103z" data-original="#000000" class="active-path" style="fill:#FFFFFF" data-old_color="#000000"/>
	<path d="M242.483,105.864V0C179.055,3.195,119.877,29.412,74.644,74.645C29.846,119.444,3.712,177.925,0.111,240.664h105.915   C113.146,169.088,170.663,112.13,242.483,105.864z" data-original="#000000" class="active-path" style="fill:#FFFFFF" data-old_color="#000000"/>
	<path d="M405.302,240.664h105.915c-3.601-62.738-29.735-121.22-74.534-166.018C392.317,30.279,334.533,4.22,272.483,0.222v106.003   C342.599,114.065,398.302,170.301,405.302,240.664z" data-original="#000000" class="active-path" style="fill:#FFFFFF" data-old_color="#000000"/>
	<path d="M226.665,240.664v19.926c0,4.503-0.746,7.787-2.106,10.074c-1.801,3.029-4.682,4.306-8.361,4.306s-6.56-1.277-8.361-4.306   c-1.36-2.287-2.107-5.571-2.107-10.074v-19.926V223.61h-23.088v17.053v20.61c0,3.371,0.338,6.502,0.986,9.39   c3.3,14.715,14.791,22.992,32.374,22.992c11.762,0,20.798-3.704,26.481-10.56c4.48-5.404,6.878-12.766,6.878-21.822V223.61h-6.878   h-15.818V240.664z" data-original="#000000" class="active-path" style="fill:#FFFFFF" data-old_color="#000000"/>
	<polygon points="307.278,223.61 296.038,240.664 295.93,240.828 295.819,240.664 284.288,223.61 272.483,223.61 258.363,223.61    282.233,257.557 272.84,270.664 272.483,271.161 257.483,292.09 272.483,292.09 283.799,292.09 295.343,273.796 307.18,292.09    333.594,292.09 318.323,270.664 308.354,256.676 319.866,240.664 332.126,223.61  " data-original="#000000" class="active-path" style="fill:#FFFFFF" data-old_color="#000000"/>
</g></g> </svg>
